<svg xmlns="http://www.w3.org/2000/svg" xmlns:xlink="http://www.w3.org/1999/xlink" contentStyleType="text/css" data-diagram-type="DESCRIPTION" height="599px" preserveAspectRatio="none" style="width:600px;height:599px;background:#FFFFFF;" version="1.1" viewBox="0 0 600 599" width="600px" zoomAndPan="magnify"><?plantuml 1.2026.3beta6?><defs/><g><g class="title" data-source-line="1"><text fill="#000000" font-family="sans-serif" font-size="14" font-weight="700" lengthAdjust="spacing" textLength="209.043" x="191.9785" y="22.9951">Hoje: dados fragmentados</text></g><!--cluster Rede Privada--><g class="cluster" data-qualified-name="Rede Privada" data-source-line="9" id="ent0003"><rect fill="none" height="328.79" rx="2.5" ry="2.5" style="stroke:#181818;stroke-width:1;" width="226" x="7" y="160.3869"/><text fill="#000000" font-family="sans-serif" font-size="14" font-weight="700" lengthAdjust="spacing" textLength="104.6719" x="67.6641" y="175.382">Rede Privada</text></g><!--cluster Rede Pública--><g class="cluster" data-qualified-name="Rede Pública" data-source-line="15" id="ent0007"><rect fill="none" height="328.79" rx="2.5" ry="2.5" style="stroke:#181818;stroke-width:1;" width="204" x="382" y="160.3869"/><text fill="#000000" font-family="sans-serif" font-size="14" font-weight="700" lengthAdjust="spacing" textLength="102.2588" x="432.8706" y="175.382">Rede Pública</text></g><!--entity LP--><g class="entity" data-qualified-name="Rede Privada.LP" data-source-line="10" id="ent0004"><rect fill="#F1F1F1" height="52.5938" rx="2.5" ry="2.5" style="stroke:#181818;stroke-width:0.5;" width="193.626" x="23.19" y="195.3869"/><text fill="#000000" font-family="sans-serif" font-size="14" lengthAdjust="spacing" textLength="82.5645" x="33.19" y="218.382">Lab privado</text><text fill="#000000" font-family="sans-serif" font-size="14" lengthAdjust="spacing" textLength="173.626" x="33.19" y="234.6789">(Weinmann, Fleury, etc.)</text></g><!--entity PDF--><g class="entity" data-qualified-name="Rede Privada.PDF" data-source-line="11" id="ent0005"><rect fill="#F1F1F1" height="52.5938" rx="2.5" ry="2.5" style="stroke:#181818;stroke-width:0.5;" width="189.3398" x="27.33" y="307.9869"/><text fill="#000000" font-family="sans-serif" font-size="14" lengthAdjust="spacing" textLength="125.043" x="37.33" y="330.982">PDF no WhatsApp</text><text fill="#000000" font-family="sans-serif" font-size="14" lengthAdjust="spacing" textLength="169.3398" x="37.33" y="347.2789">sem padrão, sem LOINC</text></g><!--entity MP--><g class="entity" data-qualified-name="Rede Privada.MP" data-source-line="12" id="ent0006"><rect fill="#F1F1F1" height="52.5938" rx="2.5" ry="2.5" style="stroke:#181818;stroke-width:0.5;" width="168.3877" x="40.81" y="420.5769"/><text fill="#000000" font-family="sans-serif" font-size="14" lengthAdjust="spacing" textLength="141.3604" x="50.81" y="443.572">Médico pede exame</text><text fill="#000000" font-family="sans-serif" font-size="14" lengthAdjust="spacing" textLength="148.3877" x="50.81" y="459.8689">sem histórico do SUS</text></g><!--entity LS--><g class="entity" data-qualified-name="Rede Pública.LS" data-source-line="16" id="ent0008"><rect fill="#F1F1F1" height="52.5938" rx="2.5" ry="2.5" style="stroke:#181818;stroke-width:0.5;" width="120.0918" x="409.95" y="195.3869"/><text fill="#000000" font-family="sans-serif" font-size="14" lengthAdjust="spacing" textLength="100.0918" x="419.95" y="218.382">UBS / Lab SUS</text><text fill="#000000" font-family="sans-serif" font-size="14" lengthAdjust="spacing" textLength="87.0215" x="419.95" y="234.6789">rede pública</text></g><!--entity SI--><g class="entity" data-qualified-name="Rede Pública.SI" data-source-line="17" id="ent0009"><rect fill="#F1F1F1" height="52.5938" rx="2.5" ry="2.5" style="stroke:#181818;stroke-width:0.5;" width="168.1621" x="397.92" y="307.9869"/><text fill="#000000" font-family="sans-serif" font-size="14" lengthAdjust="spacing" textLength="110.8994" x="407.92" y="330.982">Sistema interno</text><text fill="#000000" font-family="sans-serif" font-size="14" lengthAdjust="spacing" textLength="148.1621" x="407.92" y="347.2789">dados presos na UBS</text></g><!--entity MU--><g class="entity" data-qualified-name="Rede Pública.MU" data-source-line="18" id="ent0010"><rect fill="#F1F1F1" height="52.5938" rx="2.5" ry="2.5" style="stroke:#181818;stroke-width:0.5;" width="171.3135" x="398.34" y="420.5769"/><text fill="#000000" font-family="sans-serif" font-size="14" lengthAdjust="spacing" textLength="120.3672" x="408.34" y="443.572">UBS pede exame</text><text fill="#000000" font-family="sans-serif" font-size="14" lengthAdjust="spacing" textLength="151.3135" x="408.34" y="459.8689">sem histórico privado</text></g><!--entity P--><g class="entity" data-qualified-name="P" data-source-line="7" id="ent0002"><ellipse cx="295.004" cy="51.2969" fill="#F1F1F1" rx="8" ry="8" style="stroke:#181818;stroke-width:0.5;"/><path d="M295.004,59.2969 L295.004,86.2969 M282.004,67.2969 L308.004,67.2969 M295.004,86.2969 L282.004,101.2969 M295.004,86.2969 L308.004,101.2969" fill="none" style="stroke:#181818;stroke-width:0.5;"/><text fill="#000000" font-family="sans-serif" font-size="14" lengthAdjust="spacing" textLength="60.1973" x="217.17" y="115.792">Paciente</text><text fill="#000000" font-family="sans-serif" font-size="14" lengthAdjust="spacing" textLength="155.668" x="217.17" y="132.0889">(SUS + plano privado)</text></g><!--entity NC--><g class="entity" data-qualified-name="NC" data-source-line="21" id="ent0011"><rect fill="#FFF0F0" height="36.2969" rx="2.5" ry="2.5" style="stroke:#181818;stroke-width:0.5;" width="114.7666" x="248.62" y="428.7269"/><text fill="#000000" font-family="sans-serif" font-size="14" lengthAdjust="spacing" textLength="94.7666" x="258.62" y="451.722">Sem conexão</text></g><!--entity DUP--><g class="entity" data-qualified-name="DUP" data-source-line="23" id="ent0012"><rect fill="#FFE0E0" height="52.5938" rx="2.5" ry="2.5" style="stroke:#181818;stroke-width:0.5;" width="156.9238" x="227.54" y="533.1769"/><text fill="#000000" font-family="sans-serif" font-size="14" lengthAdjust="spacing" textLength="135.1533" x="237.54" y="556.172">Exames duplicados</text><text fill="#000000" font-family="sans-serif" font-size="14" lengthAdjust="spacing" textLength="136.9238" x="237.54" y="572.4689">custo desperdiçado</text></g><!--link P to LP--><g class="link" data-entity-1="ent0002" data-entity-2="ent0004" data-link-type="dependency" data-source-line="25" id="lnk13"><path d="M233.79,135.7669 C207.18,155.6269 181.7984,174.5681 159.2084,191.4281" fill="none" id="P-to-LP" style="stroke:#181818;stroke-width:1;"/><polygon fill="#181818" points="154.4,195.0169,164.0051,192.8394,158.407,192.0262,159.2201,186.4281,154.4,195.0169" style="stroke:#181818;stroke-width:1;"/></g><!--link P to LS--><g class="link" data-entity-1="ent0002" data-entity-2="ent0008" data-link-type="dependency" data-source-line="26" id="lnk14"><path d="M356.21,135.7669 C382.82,155.6269 408.2016,174.5681 430.7916,191.4281" fill="none" id="P-to-LS" style="stroke:#181818;stroke-width:1;"/><polygon fill="#181818" points="435.6,195.0169,430.7799,186.4281,431.593,192.0262,425.9949,192.8394,435.6,195.0169" style="stroke:#181818;stroke-width:1;"/></g><!--link LP to PDF--><g class="link" data-entity-1="ent0004" data-entity-2="ent0005" data-link-type="dependency" data-source-line="27" id="lnk15"><path d="M120.46,248.3369 C120.79,266.2069 121.1123,283.9378 121.4323,301.7678" fill="none" id="LP-to-PDF" style="stroke:#181818;stroke-width:1;"/><polygon fill="#181818" points="121.54,307.7669,125.3779,298.6965,121.4503,302.7677,117.3791,298.8401,121.54,307.7669" style="stroke:#181818;stroke-width:1;"/></g><!--link LS to SI--><g class="link" data-entity-1="ent0008" data-entity-2="ent0009" data-link-type="dependency" data-source-line="28" id="lnk16"><path d="M472.78,248.3369 C474.72,266.2069 476.6543,283.9717 478.5843,301.8017" fill="none" id="LS-to-SI" style="stroke:#181818;stroke-width:1;"/><polygon fill="#181818" points="479.23,307.7669,482.2382,298.3887,478.6919,302.7959,474.2847,299.2496,479.23,307.7669" style="stroke:#181818;stroke-width:1;"/></g><!--link PDF to NC--><g class="link" data-entity-1="ent0005" data-entity-2="ent0011" data-link-type="dependency" data-source-line="29" id="lnk17"><path d="M164.68,360.9369 C199.07,381.6069 241.3876,407.0356 271.5976,425.1956" fill="none" id="PDF-to-NC" style="stroke:#181818;stroke-width:1;stroke-dasharray:7,7;"/><polygon fill="#181818" points="276.74,428.2869,271.0872,420.2218,272.4547,425.7109,266.9656,427.0783,276.74,428.2869" style="stroke:#181818;stroke-width:1;"/></g><!--link SI to NC--><g class="link" data-entity-1="ent0009" data-entity-2="ent0011" data-link-type="dependency" data-source-line="30" id="lnk18"><path d="M441.18,360.9369 C408.28,381.6069 367.9603,406.9346 339.0603,425.0946" fill="none" id="SI-to-NC" style="stroke:#181818;stroke-width:1;stroke-dasharray:7,7;"/><polygon fill="#181818" points="333.98,428.2869,343.7286,426.8853,338.2136,425.6266,339.4722,420.1116,333.98,428.2869" style="stroke:#181818;stroke-width:1;"/></g><!--link PDF to MP--><g class="link" data-entity-1="ent0005" data-entity-2="ent0006" data-link-type="dependency" data-source-line="31" id="lnk19"><path d="M122.7,360.9369 C123.18,378.7969 123.6553,396.5291 124.1453,414.3691" fill="none" id="PDF-to-MP" style="stroke:#181818;stroke-width:1;"/><polygon fill="#181818" points="124.31,420.3669,128.0614,411.2604,124.1727,415.3688,120.0644,411.4801,124.31,420.3669" style="stroke:#181818;stroke-width:1;"/></g><!--link SI to MU--><g class="link" data-entity-1="ent0009" data-entity-2="ent0010" data-link-type="dependency" data-source-line="32" id="lnk20"><path d="M482.46,360.9369 C482.79,378.7969 483.1124,396.5278 483.4324,414.3678" fill="none" id="SI-to-MU" style="stroke:#181818;stroke-width:1;"/><polygon fill="#181818" points="483.54,420.3669,487.3779,411.2966,483.4503,415.3677,479.3792,411.4401,483.54,420.3669" style="stroke:#181818;stroke-width:1;"/></g><!--link MP to DUP--><g class="link" data-entity-1="ent0006" data-entity-2="ent0012" data-link-type="dependency" data-source-line="33" id="lnk21"><path d="M166.98,473.5269 C196.12,491.3269 229.66,511.8287 258.81,529.6387" fill="none" id="MP-to-DUP" style="stroke:#181818;stroke-width:1;"/><polygon fill="#181818" points="263.93,532.7669,258.3355,524.6612,259.6633,530.16,254.1645,531.4879,263.93,532.7669" style="stroke:#181818;stroke-width:1;"/></g><!--link MU to DUP--><g class="link" data-entity-1="ent0010" data-entity-2="ent0012" data-link-type="dependency" data-source-line="34" id="lnk22"><path d="M442.72,473.5269 C414.06,491.3269 381.1367,511.7908 352.4667,529.6008" fill="none" id="MU-to-DUP" style="stroke:#181818;stroke-width:1;"/><polygon fill="#181818" points="347.37,532.7669,357.1257,531.4155,351.6172,530.1285,352.9043,524.62,347.37,532.7669" style="stroke:#181818;stroke-width:1;"/></g><?plantuml-src TLB1Zjem4BtxAqRifLM1SkvXfIuG5IdGg5Qq5ov3F82xoTYodMwhgl_USR98qEsUU7ZclNbl9iccbk2B-qwVmA1n4Ou1Jnrnod-KYa-MFGRiu83DqocuditIjIx0yzackgh7ip2UBP_WY6syhXWwOj-cmd7QOKSGaUCiKh17fR19eZMfiB4oa_RyJjSQFe1laHtuO7-8wli9O8HAgK1DGZw9uyatCWJLKCS9_5O0LyKI3nUkA3wIvGwPfr2qr8TVKw3Kp4VHihfbLgi2PF3Z6LFyxFsU8tNWqGHqKyYu_BhPBKS_g-AMkoLZ6p6TdT5FIJgoppPAnbmn3YJTGDvMwiz_ylI7rZQlyzGF6Zv2JYNyFOVSwo-zEOM-xTSoaZe4AoiDB3iOJ-i3HVbX114SY7hpUj3R_bzMEWQe_mcWfRLnBCInORU4kw8e5iNYfcsTXIEOtcVtuchFJIy3v2k9de8P7WU1LLrbXVLYBGeLp6Rt-LelGAjoHFaAfHwWXCddcy_lPRZIcmlAZxakEvV70TLgEz9bYDhM5_WN?></g></svg>